<svg width="22" height="28" viewBox="0 0 22 28" fill="none" xmlns="http://www.w3.org/2000/svg">
<g clip-path="url(#clip0_30_348)">
<path d="M11.8944 8.14789C13.0756 8.15074 13.6751 8.15644 14.1927 8.16974L14.3964 8.17639C14.6316 8.18399 14.8637 8.19349 15.144 8.20489C16.2611 8.25239 17.0234 8.41198 17.6922 8.64663C18.3852 8.88792 18.969 9.21471 19.5527 9.74195C20.0866 10.2168 20.4997 10.7913 20.7633 11.4253C21.0226 12.0304 21.199 12.7201 21.2515 13.7319C21.2641 13.9846 21.2746 14.1945 21.283 14.4082L21.2893 14.5925C21.3051 15.0599 21.3114 15.6024 21.3135 16.6711L21.3145 17.3798V18.6242C21.3171 19.3172 21.3091 20.0101 21.2904 20.7028L21.2841 20.8871C21.2757 21.1008 21.2652 21.3108 21.2526 21.5635C21.2001 22.5752 21.0216 23.2639 20.7633 23.87C20.5005 24.5044 20.0873 25.079 19.5527 25.5534C19.0277 26.0363 18.3929 26.41 17.6922 26.6487C17.0234 26.8834 16.2611 27.0429 15.144 27.0904C14.8949 27.1011 14.6457 27.1106 14.3964 27.1189L14.1927 27.1246C13.6751 27.1379 13.0756 27.1446 11.8944 27.1465L11.1112 27.1474H9.73677C8.97059 27.1498 8.2044 27.1426 7.43844 27.1256L7.23475 27.1199C6.98551 27.1114 6.73632 27.1015 6.48719 27.0904C5.37005 27.0429 4.60779 26.8834 3.93792 26.6487C3.23726 26.4106 2.60262 26.0368 2.07847 25.5534C1.54409 25.0787 1.1306 24.5042 0.86683 23.87C0.607493 23.2649 0.431102 22.5752 0.378605 21.5635C0.366907 21.3381 0.356408 21.1126 0.347107 20.8871L0.341857 20.7028C0.322509 20.0101 0.313758 19.3172 0.315608 18.6242V16.6711C0.312678 15.9782 0.320378 15.2853 0.338707 14.5925L0.346057 14.4082C0.354456 14.1945 0.364956 13.9846 0.377555 13.7319C0.430052 12.7201 0.606443 12.0314 0.86578 11.4253C1.12944 10.7906 1.54375 10.216 2.07952 9.74195C2.60354 9.25886 3.23776 8.88506 3.93792 8.64663C4.60779 8.41198 5.369 8.25239 6.48719 8.20489C6.76648 8.19349 6.99957 8.18399 7.23475 8.17639L7.43844 8.17069C8.20406 8.15381 8.96989 8.14653 9.73573 8.14884L11.8944 8.14789ZM10.8151 12.8978C9.42275 12.8978 8.08747 13.3982 7.10295 14.289C6.11843 15.1798 5.56534 16.3879 5.56534 17.6477C5.56534 18.9074 6.11843 20.1156 7.10295 21.0063C8.08747 21.8971 9.42275 22.3976 10.8151 22.3976C12.2074 22.3976 13.5427 21.8971 14.5272 21.0063C15.5117 20.1156 16.0648 18.9074 16.0648 17.6477C16.0648 16.3879 15.5117 15.1798 14.5272 14.289C13.5427 13.3982 12.2074 12.8978 10.8151 12.8978ZM10.8151 14.7977C11.2287 14.7977 11.6383 14.8713 12.0205 15.0145C12.4027 15.1577 12.75 15.3675 13.0425 15.6321C13.335 15.8967 13.5671 16.2109 13.7255 16.5566C13.8838 16.9024 13.9654 17.2729 13.9654 17.6472C13.9655 18.0215 13.8841 18.3921 13.7259 18.7379C13.5676 19.0836 13.3357 19.3979 13.0432 19.6625C12.7508 19.9272 12.4036 20.1372 12.0215 20.2805C11.6393 20.4238 11.2298 20.4975 10.8161 20.4976C9.98073 20.4976 9.17956 20.1973 8.58885 19.6629C7.99814 19.1284 7.66628 18.4035 7.66628 17.6477C7.66628 16.8918 7.99814 16.1669 8.58885 15.6325C9.17956 15.098 9.98073 14.7977 10.8161 14.7977M16.3283 11.4728C15.9803 11.4728 15.6464 11.5979 15.4003 11.8206C15.1542 12.0433 15.0159 12.3453 15.0159 12.6603C15.0159 12.9752 15.1542 13.2773 15.4003 13.5C15.6464 13.7226 15.9803 13.8478 16.3283 13.8478C16.6764 13.8478 17.0102 13.7226 17.2564 13.5C17.5025 13.2773 17.6408 12.9752 17.6408 12.6603C17.6408 12.3453 17.5025 12.0433 17.2564 11.8206C17.0102 11.5979 16.6764 11.4728 16.3283 11.4728Z" fill="white"/>
</g>
<defs>
<clipPath id="clip0_30_348">
<rect width="21" height="27" fill="white" transform="translate(0.315002 0.147888)"/>
</clipPath>
</defs>
</svg>
