<svg width="21" height="16" viewBox="0 0 21 16" fill="none" xmlns="http://www.w3.org/2000/svg">
<path d="M20.92 1.83333C20.15 2.15417 19.32 2.365 18.46 2.46583C19.34 1.98 20.02 1.21 20.34 0.284167C19.51 0.7425 18.59 1.06333 17.62 1.24667C16.83 0.458333 15.72 0 14.46 0C12.11 0 10.19 1.76 10.19 3.9325C10.19 4.24417 10.23 4.54667 10.3 4.83083C6.74 4.66583 3.57 3.09833 1.46 0.724167C1.09 1.30167 0.88 1.98 0.88 2.695C0.88 4.06083 1.63 5.27083 2.79 5.95833C2.08 5.95833 1.42 5.775 0.84 5.5V5.5275C0.84 7.43417 2.32 9.02917 4.28 9.38667C3.65073 9.54452 2.9901 9.56649 2.35 9.45083C2.62161 10.2323 3.15354 10.916 3.87102 11.406C4.5885 11.896 5.45545 12.1675 6.35 12.1825C4.83363 13.2829 2.954 13.8777 1.02 13.8692C0.68 13.8692 0.34 13.8508 0 13.8142C1.9 14.9325 4.16 15.5833 6.58 15.5833C14.46 15.5833 18.79 9.58833 18.79 4.39083C18.79 4.21667 18.79 4.05167 18.78 3.8775C19.62 3.3275 20.34 2.63083 20.92 1.83333Z" fill="#E0FBFF"/>
</svg>
